# This file uses centimeters as units for non-parametric coordinates.

mtllib Floor.mtl
g default
v -6178.870383 -21.651849 7327.430528
v -3004.618434 -21.651849 13518.494945
v -6178.870383 21.651849 7327.430528
v -3004.618434 21.651849 13518.494945
v 2433.305579 21.651849 1206.492020
v 1900.053961 21.651849 8883.906859
v 2433.303708 -21.651849 1206.491952
v 1900.053961 -21.651849 8883.906859
v -3837.792178 21.651849 5713.930717
v -374.663320 21.651849 12006.702711
v -374.663320 -21.651849 12006.702711
v -3837.792178 -21.651849 5713.930717
v 4325.104693 21.651849 3601.592289
v 3203.822688 21.651849 6851.972309
v 3203.822688 -21.651849 6851.972309
v 4325.104693 -21.651849 3601.592289
v 2433.303708 -21.651849 1206.491952
v -3837.792178 -21.651849 5713.930717
v -3837.792178 21.651849 5713.930717
v 2433.305579 21.651849 1206.492020
v 2235.099556 21.651849 4060.131508
v 2235.099556 -21.651849 4060.131508
v 609.876111 -21.651849 2646.289749
v 609.876111 21.651849 2646.289749
v 3636.291223 21.651849 5598.328881
v 3636.291223 -21.651849 5598.328881
v 609.876111 -21.651849 2646.289749
v 609.876111 21.651849 2646.289749
v -2274.624760 -21.651849 -220.986888
v -2274.624760 21.651849 -220.986888
v -3712.441515 -21.651849 1761.806823
v -3712.441515 21.651849 1761.806823
v -4535.149539 -21.651849 6196.310086
v -4535.149539 21.651849 6196.310086
v -4409.798833 21.651849 1739.688663
v -4409.798833 -21.651849 1739.688663
v -2576.086992 -21.651849 13272.160223
v -5797.410407 -21.651849 7064.524322
v -5797.410407 21.651849 7064.524322
v -2576.086992 21.651849 13272.160223
v -6696.660951 -22.929684 5760.299472
v -6696.456570 20.373341 5760.172861
v -7067.542383 -20.373341 6037.917318
v -7067.338404 22.929684 6037.791393
vt 0.376174 0.639311
vt 0.625415 0.049945
vt 0.376207 0.262347
vt 0.627131 0.238242
vt 0.375000 0.500000
vt 0.625000 0.500000
vt 0.375000 0.750000
vt 0.625000 0.750000
vt 0.628327 1.012472
vt 0.875000 0.000000
vt 0.875000 0.250000
vt 0.125000 0.000000
vt 0.125000 0.250000
vt 0.346590 0.278410
vt 0.625000 0.306820
vt 0.681820 0.250000
vt 0.625000 0.943180
vt 0.681820 0.000000
vt 0.346590 0.471590
vt 0.375000 0.500000
vt 0.625000 0.500000
vt 0.625000 0.750000
vt 0.375000 0.750000
vt 0.125000 0.000000
vt 0.318180 0.000000
vt 0.318180 0.250000
vt 0.125000 0.250000
vt 0.467923 0.500000
vt 0.467923 0.750000
vt 0.175335 0.000000
vt 0.375000 0.800335
vt 0.175335 0.250000
vt 0.375000 0.449665
vt 0.528577 0.500000
vt 0.528577 0.750000
vt 0.175335 0.000000
vt 0.175335 0.250000
vt 0.175335 0.250000
vt 0.175335 0.000000
vt 0.318180 0.000000
vt 0.318180 0.250000
vt 0.318180 0.000000
vt 0.318180 0.250000
vt 0.318180 0.250000
vt 0.318180 0.000000
vt 0.627785 1.001181
vt 0.634605 0.041807
vt 0.371354 0.611982
vt 0.371381 0.264965
vt 0.626784 0.249417
vt 0.636042 0.240158
vt 0.371381 0.264965
vt 0.371354 0.611982
vt 0.376174 0.639311
vt 0.376207 0.262347
vn -0.879411 0.000479 0.476063
vn -0.889856 0.000000 0.456242
vn -0.889856 0.000000 0.456242
vn -0.878123 0.000537 0.478434
vn -0.000000 1.000000 0.000000
vn -0.000000 1.000000 0.000000
vn 0.000000 1.000000 -0.000000
vn 0.000000 1.000000 -0.000000
vn 0.000000 1.000000 -0.000000
vn 0.945332 0.000000 0.326111
vn 0.945332 0.000000 0.326111
vn 0.945332 0.000000 0.326111
vn 0.945332 0.000000 0.326111
vn 0.000000 -1.000000 -0.000000
vn 0.000000 -1.000000 -0.000000
vn 0.000000 -1.000000 -0.000000
vn 0.700062 0.000000 0.714082
vn 0.700062 0.000000 0.714082
vn 0.821459 0.000000 0.570268
vn 0.821459 0.000000 0.570268
vn -0.619710 0.000025 -0.784831
vn -0.619710 0.000025 -0.784831
vn -0.619710 0.000025 -0.784831
vn -0.619710 0.000025 -0.784831
vn 0.000077 1.000000 -0.000053
vn -0.000000 1.000000 0.000000
vn 0.498364 0.000000 0.866968
vn 0.498364 0.000000 0.866968
vn 0.000000 -1.000000 -0.000000
vn 0.000000 -1.000000 -0.000000
vn -0.000000 -1.000000 0.000000
vn -0.000077 -1.000000 0.000053
vn 0.000000 1.000000 -0.000000
vn -0.000000 1.000000 0.000000
vn 0.000000 1.000000 -0.000000
vn 0.884142 0.000000 0.467218
vn 0.884142 0.000000 0.467218
vn 0.000000 -1.000000 -0.000000
vn -0.000000 -1.000000 0.000000
vn -0.000000 -1.000000 0.000000
vn 0.784734 -0.000014 -0.619832
vn 0.784734 -0.000014 -0.619832
vn 0.784734 -0.000014 -0.619832
vn 0.784734 -0.000014 -0.619832
vn 0.000000 0.000000 0.000000
vn 0.000000 0.000000 0.000000
vn 0.000000 0.000000 0.000000
vn 0.000000 0.000000 0.000000
vn 0.000000 0.000000 0.000000
vn 0.000000 0.000000 0.000000
vn 0.000000 0.000000 0.000000
vn 0.000000 0.000000 0.000000
vn 0.000000 0.000000 0.000000
vn 0.000000 0.000000 0.000000
vn 0.000000 0.000000 0.000000
vn 0.000000 0.000000 0.000000
vn 0.000000 0.000000 0.000000
vn 0.000000 0.000000 0.000000
vn 0.000000 0.000000 0.000000
vn 0.000000 0.000000 0.000000
vn -0.809554 0.000000 -0.587045
vn -0.809554 0.000000 -0.587045
vn -0.809554 0.000000 -0.587045
vn -0.809554 0.000000 -0.587045
vn -0.000000 1.000000 0.000000
vn 0.000000 -1.000000 -0.000000
vn 0.000000 0.000000 0.000000
vn 0.000000 0.000000 0.000000
vn 0.000000 0.000000 0.000000
vn 0.000000 0.000000 0.000000
vn 0.704986 0.000000 -0.709221
vn 0.704986 0.000000 -0.709221
vn 0.704986 0.000000 -0.709221
vn 0.704986 0.000000 -0.709221
vn 0.000000 -1.000000 -0.000000
vn 0.000000 -1.000000 -0.000000
vn 0.000000 -1.000000 -0.000000
vn 0.000000 -1.000000 -0.000000
vn -0.999605 0.000000 -0.028116
vn -0.999605 0.000000 -0.028116
vn -0.999605 0.000000 -0.028116
vn -0.999605 0.000000 -0.028116
vn -0.000000 1.000000 0.000000
vn 0.000000 1.000000 0.000000
vn 0.000000 1.000000 0.000000
vn -0.000000 1.000000 0.000000
vn -0.567486 0.000000 -0.823383
vn -0.567486 0.000000 -0.823383
vn -0.567486 0.000000 -0.823383
vn -0.567486 0.000000 -0.823383
vn 0.568886 0.000000 0.822416
vn 0.568886 0.000000 0.822416
vn 0.568886 0.000000 0.822416
vn 0.568886 0.000000 0.822416
vn -0.000000 1.000000 0.000000
vn -0.000000 1.000000 0.000000
vn 0.031701 0.000000 -0.999497
vn 0.031701 0.000000 -0.999497
vn 0.031701 0.000000 -0.999497
vn 0.031701 0.000000 -0.999497
vn 0.000000 -1.000000 0.000000
vn 0.000000 -1.000000 0.000000
vn -0.000000 -1.000000 0.000000
vn -0.000344 -1.000000 0.000237
vn -0.599247 0.000494 -0.800564
vn -0.599247 0.000494 -0.800564
vn -0.599247 0.000494 -0.800564
vn -0.599247 0.000494 -0.800564
vn 0.000344 1.000000 -0.000237
vn 0.000000 1.000000 -0.000000
vn 0.498363 0.000000 0.866968
vn 0.498363 0.000000 0.866968
vn 0.823317 -0.002772 -0.567575
vn 0.823317 -0.002772 -0.567575
vn 0.823317 -0.002772 -0.567575
vn 0.823317 -0.002772 -0.567575
vn -0.002273 -0.999996 0.001566
vn -0.002273 -0.999996 0.001566
vn -0.823445 0.002763 0.567389
vn -0.823445 0.002763 0.567389
vn 0.002273 0.999996 -0.001566
vn 0.002273 0.999996 -0.001566
s 1
g LVD_fin_dannee_:cartier1 Floor
usemtl initialShadingGroup
f 1/1/1 2/2/2 4/4/3 3/3/4
s 2
f 9/14/5 10/15/6 6/6/7 21/28/8 24/33/9
s 3
f 13/20/10 25/34/11 26/35/12 16/23/13
s 4
f 7/7/14 22/29/15 23/31/16
s 3
f 10/16/17 11/18/18 8/10/19 6/11/20
s off
f 17/24/21 27/36/22 28/37/23 20/27/24
s 2
f 39/49/25 40/50/26 10/15/6 9/14/5
s 3
f 40/51/27 37/47/28 11/18/18 10/16/17
s 4
f 12/19/29 11/17/30 37/46/31 38/48/32
s 2
f 5/5/33 21/28/8 25/34/34 13/20/35
s 3
f 6/6/20 8/8/19 15/22/36 14/21/37
s 4
f 8/8/38 22/29/15 26/35/39 15/22/40
s off
f 7/7/41 5/5/42 13/20/43 16/23/44
s 6
f 7/12/45 23/30/46 27/36/47 17/24/48
s off
f 12/19/49 9/14/50 19/26/51 18/25/52
s 7
f 9/14/53 24/32/54 28/37/55 19/26/56
s off
f 5/13/57 7/12/58 17/24/59 20/27/60
s 2
f 24/33/9 21/28/8 5/5/33
s 3
f 26/35/12 25/34/11 14/21/37 15/22/36
s 4
f 23/31/16 22/29/15 8/8/38 11/17/30 12/19/29
s off
f 30/38/61 29/39/62 31/40/63 32/41/64
s 2
f 25/34/34 21/28/8 6/6/7 14/21/65
s 4
f 26/35/39 22/29/15 7/7/14 16/23/66
s 6
f 27/36/47 23/30/46 12/19/67 18/25/68
s 7
f 28/37/55 24/32/54 5/13/69 20/27/70
s off
f 28/37/71 27/36/72 29/39/73 30/38/74
s 8
f 27/36/75 18/25/76 31/40/77 29/39/78
s off
f 33/42/79 34/43/80 35/44/81 36/45/82
s 9
f 19/26/83 28/37/84 30/38/85 32/41/86
s off
f 12/19/87 38/48/88 39/49/89 9/14/90
f 18/25/91 19/26/92 34/43/93 33/42/94
s 9
f 19/26/83 32/41/86 35/44/95 34/43/96
s off
f 32/41/97 31/40/98 36/45/99 35/44/100
s 8
f 31/40/77 18/25/76 33/42/101 36/45/102
s 4
f 38/48/32 37/46/31 2/9/103 1/1/104
s off
f 42/52/105 41/53/106 43/54/107 44/55/108
s 2
f 3/3/109 4/4/110 40/50/26 39/49/25
s 3
f 4/4/111 2/2/112 37/47/28 40/51/27
s off
f 39/49/113 38/48/114 41/53/115 42/52/116
s 4
f 38/48/32 1/1/104 43/54/117 41/53/118
s 1
f 1/1/1 3/3/4 44/55/119 43/54/120
s 2
f 3/3/109 39/49/25 42/52/121 44/55/122
g default
v 4695.341812 -12.743539 2086.017704
v 7253.580856 -12.743539 -996.908506
v 4695.341812 17.256467 2086.017704
v 7253.580856 17.256467 -996.908506
v -4992.949852 17.256467 -11078.844154
v 163.351291 17.256467 -11131.562481
v -4992.949852 -12.743539 -11078.844154
v 163.351291 -12.743539 -11131.562481
v 1834.307163 17.256467 -764.687350
v 5610.517943 17.256467 -4090.102950
v 1834.307163 -12.743539 -764.687350
v 5610.518811 -12.743539 -4090.103372
v -4286.304461 -12.743539 -8116.160367
v 2713.192728 -12.743539 -7835.426944
v -4287.081645 17.256467 -8117.341650
v 2712.329511 17.256467 -7836.542015
v -4503.141739 -12.743539 -2589.810987
v -4503.918660 17.256467 -2590.991673
v 464.468759 -12.743539 382.630471
v 464.468759 17.256467 382.630471
vt 0.375000 0.000000
vt 0.625000 0.000000
vt 0.375000 0.250000
vt 0.625000 0.250000
vt 0.375000 0.500000
vt 0.625000 0.500000
vt 0.375000 0.750000
vt 0.625000 0.750000
vt 0.375000 1.000000
vt 0.625000 1.000000
vt 0.875000 0.000000
vt 0.875000 0.250000
vt 0.125000 0.000000
vt 0.125000 0.250000
vt 0.285040 0.250000
vt 0.375000 0.339960
vt 0.625000 0.331808
vt 0.706808 0.250000
vt 0.285040 0.000000
vt 0.375000 0.910040
vt 0.625000 0.918192
vt 0.706808 0.000000
vt 0.218641 0.000000
vt 0.375000 0.843641
vt 0.625000 0.828732
vt 0.796269 0.000000
vt 0.218623 0.250000
vt 0.375000 0.406377
vt 0.625000 0.421295
vt 0.796295 0.250000
vt 0.218623 0.250000
vt 0.218641 0.000000
vt 0.285040 0.000000
vt 0.285040 0.250000
vn 0.769554 0.000000 0.638582
vn 0.769554 0.000000 0.638582
vn 0.769554 0.000000 0.638582
vn 0.769554 0.000000 0.638582
vn 0.000000 1.000000 0.000000
vn 0.000000 1.000000 0.000000
vn -0.000000 1.000000 -0.000000
vn -0.000000 1.000000 -0.000000
vn -0.010224 0.000000 -0.999948
vn -0.010224 0.000000 -0.999948
vn -0.010224 0.000000 -0.999948
vn -0.010224 0.000000 -0.999948
vn 0.000000 -1.000000 0.000000
vn 0.000000 -1.000000 0.000000
vn -0.000000 -1.000000 -0.000000
vn 0.000000 -1.000000 0.000000
vn 0.883139 0.000017 -0.469111
vn 0.833093 0.000017 -0.553134
vn 0.833093 0.000017 -0.553134
vn 0.883139 0.000017 -0.469111
vn -0.972701 -0.008033 0.231923
vn -0.972701 -0.008033 0.231923
vn -0.972701 -0.008033 0.231923
vn -0.972701 -0.008033 0.231923
vn -0.000000 1.000000 -0.000000
vn -0.000000 1.000000 -0.000000
vn -0.000000 -1.000000 -0.000000
vn -0.000000 -1.000000 -0.000000
vn -0.000000 -1.000000 -0.000000
vn -0.000000 -1.000000 -0.000000
vn 0.790957 0.000013 -0.611872
vn 0.790957 0.000013 -0.611872
vn -0.705827 0.000000 0.708384
vn -0.705827 0.000000 0.708384
vn -0.705827 0.000000 0.708384
vn -0.705827 0.000000 0.708384
vn -0.513482 0.010255 0.858039
vn -0.513482 0.010255 0.858039
vn -0.513482 0.010255 0.858039
vn -0.513482 0.010255 0.858039
vn 0.000000 1.000000 0.000000
vn 0.000000 1.000000 0.000000
vn 0.790957 0.000009 -0.611872
vn 0.790957 0.000009 -0.611872
vn -0.998856 -0.027408 -0.039192
vn -0.998856 -0.027408 -0.039192
vn -0.998856 -0.027408 -0.039192
vn -0.998856 -0.027408 -0.039192
vn 0.000000 -1.000000 0.000000
vn 0.000000 -1.000000 0.000000
vn 0.642093 0.000000 0.766626
vn 0.642093 0.000000 0.766626
vn 0.642093 0.000000 0.766626
vn 0.642093 0.000000 0.766626
vn -0.000000 1.000000 -0.000000
vn -0.000000 1.000000 -0.000000
s off
g Floor LVD_fin_dannee_:quartier6
usemtl initialShadingGroup
f 45/56/123 46/57/124 48/59/125 47/58/126
s 1
f 47/58/127 48/59/128 54/72/129 53/71/130
s off
f 49/60/131 50/61/132 52/63/133 51/62/134
s 2
f 51/62/135 52/63/136 58/80/137 57/79/138
s 3
f 46/57/139 56/77/140 54/73/141 48/59/142
s off
f 51/68/143 57/78/144 59/82/145 49/69/146
s 1
f 53/71/130 54/72/129 60/84/147 59/83/148
s 2
f 55/75/149 56/76/150 46/65/151 45/64/152
s 3
f 54/73/141 56/77/140 58/81/153 60/85/154
s off
f 53/70/155 55/74/156 45/56/157 47/58/158
s 2
f 57/79/138 58/80/137 56/76/150 55/75/149
s off
f 62/86/159 61/87/160 63/88/161 64/89/162
s 1
f 59/83/148 60/84/147 50/61/163 49/60/164
s 3
f 60/85/154 58/81/153 52/66/165 50/67/166
s off
f 59/82/167 57/78/168 61/87/169 62/86/170
s 2
f 57/78/138 55/74/149 63/88/171 61/87/172
s off
f 55/74/173 53/70/174 64/89/175 63/88/176
s 1
f 53/70/130 59/82/148 62/86/177 64/89/178
